<svg width="24" height="24" viewBox="0 0 24 24" fill="none" xmlns="http://www.w3.org/2000/svg">
<g clip-path="url(#clip0_1973_3089)">
<path d="M11.406 0.13201L0.585991 5.18701C0.512821 5.22056 0.450835 5.27444 0.407412 5.34222C0.363989 5.41 0.340959 5.48883 0.341065 5.56933C0.34117 5.64983 0.364405 5.7286 0.408005 5.79627C0.451605 5.86393 0.513733 5.91765 0.586991 5.95101L11.492 10.969C11.814 11.117 12.186 11.117 12.508 10.969L23.413 5.95101C23.4863 5.91774 23.5485 5.86411 23.5922 5.7965C23.6359 5.72889 23.6592 5.65015 23.6594 5.56965C23.6596 5.48915 23.6367 5.41029 23.5934 5.34245C23.55 5.27461 23.4881 5.22066 23.415 5.18701L12.594 0.13201C12.408 0.0451033 12.2053 6.10352e-05 12 6.10352e-05C11.7947 6.10352e-05 11.592 0.0451033 11.406 0.13201Z" fill="#7C3AED"/>
<path opacity="0.64" d="M23.415 11.676L21.18 10.632C21.0199 10.5572 20.8455 10.5182 20.6688 10.5177C20.4922 10.5172 20.3175 10.5552 20.157 10.629L12.508 14.149C12.3487 14.2223 12.1754 14.2602 12 14.2602C11.8246 14.2602 11.6513 14.2223 11.492 14.149L3.842 10.629C3.68164 10.5553 3.50716 10.5174 3.33067 10.5179C3.15419 10.5185 2.97993 10.5574 2.82 10.632L0.585004 11.676C0.511877 11.7097 0.449962 11.7636 0.406627 11.8315C0.363293 11.8993 0.340367 11.9782 0.340578 12.0587C0.340788 12.1392 0.364126 12.2179 0.407815 12.2855C0.451504 12.3531 0.513703 12.4067 0.587005 12.44L11.492 17.457C11.6512 17.5307 11.8246 17.5688 12 17.5688C12.1754 17.5688 12.3488 17.5307 12.508 17.457L23.413 12.44C23.4863 12.4067 23.5485 12.3531 23.5922 12.2855C23.6359 12.2179 23.6592 12.1392 23.6594 12.0587C23.6596 11.9782 23.6367 11.8993 23.5934 11.8315C23.55 11.7636 23.4881 11.7097 23.415 11.676Z" fill="#C4B5FD"/>
<path d="M23.4149 18.108L21.1799 17.064C21.0198 16.9892 20.8454 16.9502 20.6687 16.9497C20.4921 16.9492 20.3174 16.9872 20.1569 17.061L12.5079 20.58C12.3486 20.6533 12.1753 20.6912 11.9999 20.6912C11.8245 20.6912 11.6512 20.6533 11.4919 20.58L3.84189 17.06C3.68153 16.9863 3.50705 16.9484 3.33056 16.9489C3.15408 16.9494 2.97982 16.9884 2.81989 17.063L0.584892 18.108C0.512046 18.1418 0.450409 18.1957 0.407281 18.2634C0.364154 18.3312 0.341344 18.4098 0.341554 18.4901C0.341765 18.5704 0.364988 18.649 0.40847 18.7165C0.451952 18.784 0.513871 18.8376 0.586893 18.871L11.4919 23.889C11.8139 24.037 12.1859 24.037 12.5079 23.889L23.4129 18.871C23.4859 18.8376 23.5478 18.784 23.5913 18.7165C23.6348 18.649 23.658 18.5704 23.6582 18.4901C23.6584 18.4098 23.6356 18.3312 23.5925 18.2634C23.5494 18.1957 23.4877 18.1418 23.4149 18.108Z" fill="#1DB5BE"/>
</g>
<defs>
<clipPath id="clip0_1973_3089">
<rect width="24" height="24" fill="white"/>
</clipPath>
</defs>
</svg>
